<?xml version="1.0" encoding="UTF-8" standalone="no"?>
<!DOCTYPE svg PUBLIC "-//W3C//DTD SVG 20010904//EN"
"http://www.w3.org/TR/2001/REC-SVG-20010904/DTD/svg10.dtd">
<!-- Created with Sodipodi ("http://www.sodipodi.com/") -->
<svg
   xmlns="http://www.w3.org/2000/svg"
   xmlns:xlink="http://www.w3.org/1999/xlink"
   xmlns:sodipodi="http://sodipodi.sourceforge.net/DTD/sodipodi-0.dtd"
   version="1.0"
   x="0"
   y="0"
   width="652pt"
   height="522pt"
   id="svg602"
   xml:space="preserve"
   sodipodi:version="0.34"
   sodipodi:docname="/home/roger/Documents/Orbital_elements.svg"
   sodipodi:docbase="/home/roger/Documents/"><defs
   id="defs1966" /><sodipodi:namedview
   id="base" /><path
   knockout="Off"
   fill="#CCFFFF"
   d="M602.492,466.388l-448.65-42.445L273.308,330l357.835,33.855l0.349-0.349      L602.492,466.388z"
   id="path1845"
   style="font-size:12;fill:#ccffff;" /><path
   knockout="Off"
   opacity="0.5"
   fill="#6699FF"
   d="M602.492,466.39l-119.465,93.941L125.19,526.479l0,0.001l-19.105,68.37      l448.651,42.445l47.756-170.907V466.39z"
   id="path1846"
   style="font-size:12;opacity:0.5;fill:#6699ff;" /><path
   knockout="Off"
   fill="#66FF66"
   d="M602.492,466.389l28.651-102.534l90.816,8.592l-119.468,93.944V466.389z"
   id="path1847"
   style="font-size:12;fill:#66ff66;" /><path
   knockout="Off"
   opacity="0.5"
   fill="#6699FF"
   d="M631.144,363.853L273.308,330l-119.466,93.943L262.699,34.375      L711.351,76.82L631.144,363.853"
   id="path1848"
   style="font-size:12;opacity:0.5;fill:#6699ff;" /><path
   knockout="Off"
   fill="#66FF66"
   d="M153.842,423.942L125.19,526.479l0-0.001l-90.814-8.592L153.842,423.942z"
   id="path1849"
   style="font-size:12;fill:#66ff66;" /><path
   knockout="Off"
   fill="#66CC66"
   d="M153.842,423.942l448.65,42.446L483.026,560.33l-357.837-33.853l0,0.001      L153.842,423.942z"
   id="path1850"
   style="font-size:12;fill:#66cc66;" /><path
   knockout="Off"
   fill="#FF9900"
   stroke="#FFFF00"
   stroke-width="3"
   stroke-linecap="round"
   stroke-miterlimit="10"
   d="      M417.618,315.242l108.093-191.842"
   id="path1851"
   style="font-size:12;fill:#ff9900;stroke:#ffff00;stroke-width:3;stroke-linecap:round;" /><path
   knockout="Off"
   fill="none"
   stroke="#000000"
   stroke-width="2"
   stroke-linecap="round"
   stroke-miterlimit="10"
   d="      M346.121,442.133l163.719,15.489"
   id="path1852"
   style="font-size:12;fill:none;stroke:#000000;stroke-width:2;stroke-linecap:round;" /><path
   knockout="Off"
   stroke="#000000"
   stroke-width="2"
   stroke-linecap="round"
   stroke-miterlimit="10"
   d="M539.645,460.441      l-33.302-0.127l7.247-5.579L539.645,460.441z"
   id="path1853"
   style="font-size:12;stroke:#000000;stroke-width:2;stroke-linecap:round;" /><path
   knockout="Off"
   fill="none"
   stroke="#000000"
   stroke-width="0.75"
   stroke-linecap="round"
   stroke-miterlimit="10"
   d="      M268.99,579.024"
   id="path1854"
   style="font-size:12;fill:none;stroke:#000000;stroke-width:0.75;stroke-linecap:round;" /><path
   knockout="Off"
   fill="none"
   stroke="#000000"
   stroke-width="2"
   stroke-linecap="round"
   stroke-miterlimit="10"
   d="      M289.821,542.053l-5.125,9.095"
   id="path1855"
   style="font-size:12;fill:none;stroke:#000000;stroke-width:2;stroke-linecap:round;" /><path
   knockout="Off"
   fill="none"
   stroke="#999999"
   stroke-width="2"
   stroke-linecap="round"
   stroke-miterlimit="10"
   d="      M346.121,442.133l-56.3,99.92"
   id="path1856"
   style="font-size:12;fill:none;stroke:#999999;stroke-width:2;stroke-linecap:round;" /><path
   knockout="Off"
   fill="none"
   stroke="#000000"
   stroke-width="2"
   stroke-linecap="round"
   stroke-miterlimit="10"
   d="      M417.618,315.242l-71.497,126.891"
   id="path1857"
   style="font-size:12;fill:none;stroke:#000000;stroke-width:2;stroke-linecap:round;" /><path
   knockout="Off"
   fill="none"
   stroke="#000000"
   stroke-width="0.25"
   stroke-linecap="round"
   stroke-miterlimit="10"
   d="      M153.842,423.942l448.651,42.445"
   id="path1858"
   style="font-size:12;fill:none;stroke:#000000;stroke-width:0.25;stroke-linecap:round;" /><g
   id="Ebene_2"
   style="font-size:12;"><path
   knockout="Off"
   opacity="0.33"
   fill="#0000FF"
   d="M298.724,487.336l5.832-9.317l14.274,12.55L298.724,487.336z"
   id="path1860" /><path
   knockout="Off"
   opacity="0.33"
   fill="none"
   stroke="#0000FF"
   stroke-linecap="round"
   stroke-miterlimit="10"
   d="       M283.005,436.162c-2.447,8.758-2.024,17.776,1.215,25.899c3.239,8.122,9.287,15.33,17.367,20.699"
   id="path1861" /><path
   knockout="Off"
   fill="none"
   stroke="#0000FF"
   stroke-linecap="round"
   stroke-miterlimit="10"
   d="M409.236,448.104       c3.721-13.316,0.617-27.193-8.437-37.715c-9.053-10.521-23.942-17.557-40.466-19.119c-16.523-1.563-34.477,2.364-48.792,10.675       c-14.315,8.311-24.815,20.9-28.536,34.217"
   id="path1862" /></g><g
   id="Ebene_3"
   style="font-size:12;"><path
   knockout="Off"
   stroke="#000000"
   stroke-width="2"
   stroke-linecap="round"
   stroke-miterlimit="10"
   d="M440.21,514.404       l15.378-3.274l5.699,10.929L440.21,514.404z"
   id="path1864" /><path
   knockout="Off"
   stroke="#000000"
   stroke-width="2"
   stroke-linecap="round"
   stroke-miterlimit="10"
   d="M346.121,442.133       l101.777,70.634"
   id="path1865" /></g><g
   id="Ebene_4"
   style="font-size:12;"><path
   knockout="Off"
   fill="#0000FF"
   d="M433.931,450.44l-6.74,7.707l-9.551-1.392L433.931,450.44z"
   id="path1867" /><path
   knockout="Off"
   fill="none"
   stroke="#0000FF"
   stroke-linecap="round"
   stroke-miterlimit="10"
   d="M385.566,469.508       c14.411-3.068,27.208-7.244,36.917-12.046"
   id="path1868" /></g><g
   id="Ebene_5"
   style="font-size:12;"><path
   knockout="Off"
   fill="#0000FF"
   d="M628.946,403.021l-3.304-19.477l7.267,11.576L628.946,403.021z"
   id="path1870" /><path
   knockout="Off"
   fill="none"
   stroke="#0000FF"
   stroke-width="0.75"
   stroke-linecap="round"
   stroke-miterlimit="10"
   d="       M630.951,399.023c3.125,11.55,5.31,25.317,6.345,39.997"
   id="path1871" /></g><path
   knockout="Off"
   stroke="#000000"
   stroke-width="2"
   stroke-linecap="round"
   stroke-miterlimit="10"
   d="M268.99,579.024      l22.53-25.217l-13.645-5.32L268.99,579.024"
   id="path1872"
   style="font-size:12;stroke:#000000;stroke-width:2;stroke-linecap:round;" /><path
   knockout="Off"
   fill="#FF0000"
   stroke="#FF0000"
   stroke-linecap="round"
   stroke-miterlimit="10"
   d="M566.055,329.285      l17.868-29.644l-2.485,31.099L566.055,329.285z"
   id="path1873"
   style="font-size:12;fill:#ff0000;stroke:#ff0000;stroke-linecap:round;" /><path
   knockout="Off"
   fill="none"
   stroke="#FF0000"
   stroke-width="3"
   stroke-linecap="round"
   stroke-miterlimit="10"
   d="      M251.312,330.843c-9.995,36.603-11.29,72.334-3.696,101.972"
   id="path1874"
   style="font-size:12;fill:none;stroke:#ff0000;stroke-width:3;stroke-linecap:round;" /><path
   knockout="Off"
   fill="none"
   stroke="#FF0000"
   stroke-width="3"
   stroke-linecap="round"
   stroke-miterlimit="10"
   d="      M583.923,299.641c13.507-49.463,10.788-97.16-7.456-130.804c-18.245-33.644-51.829-52.893-92.103-52.789      s-86.827,19.56-127.669,53.355c-40.842,33.795-75.558,81.589-95.205,131.068"
   id="path1875"
   style="font-size:12;fill:none;stroke:#ff0000;stroke-width:3;stroke-linecap:round;" /><path
   knockout="Off"
   fill="none"
   stroke="#FF0000"
   stroke-width="3"
   stroke-linecap="round"
   stroke-miterlimit="10"
   d="      M485.318,455.302c37.934-33.312,69.876-78.569,88.428-125.29"
   id="path1876"
   style="font-size:12;fill:none;stroke:#ff0000;stroke-width:3;stroke-linecap:round;" /><path
   knockout="Off"
   opacity="0.33"
   fill="none"
   stroke="#FF0000"
   stroke-width="3"
   stroke-linecap="round"
   stroke-miterlimit="10"
   d="      M247.617,432.814c7.921,30.916,25.508,55.081,49.974,68.667s55.721,16.543,88.814,8.402      c33.092-8.141,67.902-27.349,98.914-54.582"
   id="path1877"
   style="font-size:12;opacity:0.33;fill:none;stroke:#ff0000;stroke-width:3;stroke-linecap:round;" /><path
   knockout="Off"
   fill="#FF0000"
   stroke="#FF0000"
   stroke-linecap="round"
   stroke-miterlimit="10"
   d="M251.312,330.843      l17.868-29.644l-15.382-1.456L251.312,330.843z"
   id="path1878"
   style="font-size:12;fill:#ff0000;stroke:#ff0000;stroke-linecap:round;" /><path
   knockout="Off"
   fill="none"
   stroke="#000000"
   stroke-width="0.25"
   stroke-linecap="round"
   stroke-miterlimit="10"
   d="      M153.842,423.942l448.65,42.446"
   id="path1879"
   style="font-size:12;fill:none;stroke:#000000;stroke-width:0.25;stroke-linecap:round;" /><path
   knockout="Off"
   fill="#FFFF00"
   stroke="#FF9900"
   stroke-width="0.75"
   stroke-linecap="round"
   stroke-miterlimit="10"
   d="      M354.516,442.133c0,4.636-3.758,8.395-8.395,8.395c-4.636,0-8.395-3.759-8.395-8.395s3.758-8.395,8.395-8.395      C350.758,433.738,354.516,437.497,354.516,442.133z"
   id="path1880"
   style="font-size:12;fill:#ffff00;stroke:#ff9900;stroke-width:0.75;stroke-linecap:round;" /><g
   id="Ebene_8"
   knockout="Off"
   style="font-size:12;"><path
   knockout="Off"
   d="M644.76,402.75c-0.792,0-1.319-0.624-1.319-1.368s0.552-1.344,1.367-1.344       c0.816,0,1.345,0.6,1.345,1.344s-0.528,1.368-1.368,1.368H644.76z M643.752,416.502v-11.616h2.112v11.616H643.752z"
   id="path1909" /></g><g
   id="Ebene_10"
   knockout="Off"
   style="font-size:12;"><path
   knockout="Off"
   d="M423.896,479h-7.08v-3.888h0.359c0.288,1.176,0.576,1.464,1.584,1.464h3.792l-0.048-0.672       c-1.848-0.553-3.023-1.177-4.008-2.616c-1.68-2.472-1.393-5.28-0.384-7.08c0.96-1.752,2.088-2.28,2.735-2.664       c1.104-0.648,2.688-1.056,4.393-1.056s3.288,0.407,4.392,1.056c0.648,0.384,1.776,0.912,2.736,2.664       c1.008,1.8,1.296,4.608-0.384,7.08c-0.984,1.439-2.16,2.063-4.008,2.616l-0.049,0.672h3.792c1.009,0,1.296-0.288,1.584-1.464       h0.36V479h-7.08l0.384-3.648c0.769-0.336,1.896-0.575,2.832-2.735c0.792-1.824,1.057-5.977-1.08-8.112       c-0.983-0.984-2.256-1.248-3.479-1.248c-1.225,0-2.496,0.264-3.48,1.248c-2.136,2.136-1.872,6.288-1.08,8.112       c0.937,2.16,2.064,2.399,2.832,2.735L423.896,479z"
   id="path1913" /></g><g
   id="Ebene_11"
   knockout="Off"
   style="font-size:12;"
   transform="translate(-4.471092,16.76666)"><text
   x="332.016"
   y="416.872"
   style="font-size:24;font-weight:normal;stroke-width:1;font-family:Verdana;text-anchor:start;"
   id="text821"
   xml:space="preserve">S</text></g><g
   id="text_orbit"
   knockout="Off"
   transform="matrix(0.99832,9.418424e-2,-0.280798,0.975191,262.2659,33.12965)"><text
   x="0"
   y="0"
   style="font-size:36;font-weight:normal;stroke-width:2;font-family:Verdana;text-anchor:start;"
   id="text3205"
   xml:space="preserve">P1</text></g><g
   id="g3521"
   knockout="Off"
   transform="matrix(0.601209,-0.511873,1.150871,0.108654,719.8026,405.1516)"><text
   x="0"
   y="0"
   style="font-size:36;font-weight:normal;stroke-width:2;font-family:Verdana;text-anchor:start;"
   id="text3522"
   xml:space="preserve">P2</text></g><g
   id="Ebene_12"
   knockout="Off"
   style="font-size:12;"><path
   knockout="Off"
   d="M405.128,391.408c-1.536,0.576-2.112,1.008-2.616,1.848c-1.271,2.088-1.128,4.848-0.84,6.456       c0.24,1.248,0.528,1.752,0.96,2.16c0.48,0.456,1.008,0.576,1.681,0.384c1.584-0.456,1.703-2.424,1.823-2.88       c-0.432-1.248-0.912-2.76-0.576-4.68c0.192-1.057,0.528-1.608,1.152-1.608s0.96,0.552,1.152,1.608       c0.336,1.92-0.145,3.432-0.576,4.68c0.12,0.456,0.24,2.424,1.824,2.88c0.672,0.192,1.2,0.072,1.68-0.384       c0.432-0.408,0.72-0.912,0.96-2.16c0.288-1.608,0.433-4.368-0.84-6.456c-0.504-0.84-1.08-1.271-2.616-1.848V391       c0.84,0.048,2.256-0.12,3.528,0.84c1.512,1.152,2.328,2.688,2.52,4.776c0.168,1.728,0,2.808-0.527,4.08       c-0.433,1.031-1.345,2.016-2.16,2.376c-0.672,0.312-1.896,0.624-3.072-0.072c-0.84-0.48-1.224-0.84-1.872-1.968       c-0.647,1.128-1.032,1.487-1.872,1.968c-1.176,0.696-2.399,0.384-3.072,0.072c-0.815-0.36-1.728-1.345-2.159-2.376       c-0.528-1.272-0.696-2.353-0.528-4.08c0.192-2.088,1.008-3.624,2.52-4.776c1.272-0.96,2.688-0.792,3.528-0.84V391.408z"
   id="path1918" /></g><g
   id="Ebene_13"
   knockout="Off"
   style="font-size:12;"><path
   knockout="Off"
   fill="#9900CC"
   stroke="#999999"
   stroke-miterlimit="10"
   d="M287.824,507.04       c1.008-0.192,2.328-0.336,4.008-0.336c2.064,0,3.576,0.479,4.536,1.344c0.888,0.768,1.44,1.944,1.44,3.384       c0,1.464-0.432,2.616-1.272,3.456c-1.104,1.176-2.904,1.776-4.944,1.776c-0.624,0-1.2-0.024-1.68-0.145V523h-2.088V507.04z        M289.912,514.816c0.456,0.119,1.056,0.168,1.728,0.168c2.544,0,4.056-1.248,4.056-3.433c0-2.16-1.512-3.191-3.816-3.191       c-0.912,0-1.608,0.096-1.968,0.168V514.816z"
   id="path1920" /></g><path
   knockout="Off"
   d="M471.497,544.89c0.237-2.886,0.163-8.071-0.53-10.702c-0.338-1.283-0.535-1.777-1.157-2.66      c-0.763-1.084-2.382-2.227-3.527-2.227c-1.503,0-2.212,0.478-3.122,1.387l-0.347-1.618c0.503-0.397,1.485-0.942,2.524-1.126      c0.961-0.172,1.971-0.011,2.693,0.288c0.947,0.527,1.406,0.647,2.436,1.677c0.807,0.807,1.558,2.232,1.828,3.614      c0.022,0.11,0.043,0.22,0.063,0.328c0.021-0.108,0.041-0.218,0.063-0.328c0.271-1.382,1.021-2.808,1.828-3.614      c1.029-1.029,1.488-1.149,2.436-1.677c0.723-0.299,1.732-0.46,2.693-0.288c1.039,0.184,2.021,0.729,2.524,1.126l-0.347,1.618      c-0.91-0.909-1.619-1.387-3.122-1.387c-1.146,0-2.765,1.143-3.527,2.227c-0.622,0.883-0.819,1.377-1.157,2.66      c-0.693,2.631-0.768,7.816-0.53,10.702H471.497z"
   id="path1960"
   style="font-size:12;" /><path
   knockout="Off"
   d="M483.252,449.241c-0.939,0-1.701-0.689-1.701-1.541s0.762-1.541,1.701-1.541l1.096-0.846      c0.316-0.291,0.605-0.631,0.881-1.033c1.68-2.473,1.393-5.281,0.385-7.082c-0.961-1.752-2.09-2.279-2.736-2.662      c-1.105-0.649-2.688-1.057-4.393-1.057c-1.703,0-3.288,0.407-4.391,1.057c-0.649,0.383-1.777,0.91-2.736,2.662      c-1.008,1.801-1.297,4.609,0.383,7.082c0.271,0.396,0.557,0.73,0.867,1.02l1.029,0.862c0.938,0,1.7,0.69,1.7,1.541      s-0.762,1.541-1.7,1.541l-0.006,0.001c-0.938,0-1.699-0.689-1.699-1.541c0-0.851,0.762-1.541,1.699-1.541l-0.955-0.846      c-1.035,0.4-1.762,1.367-1.762,2.497c0,1.488,1.268,2.695,2.83,2.695s2.829-1.207,2.829-2.695c0-0.896-0.458-1.69-1.163-2.18      c-0.472-0.328-1.086-1.09-1.491-2.026c-0.792-1.823-1.056-5.977,1.079-8.111c0.984-0.984,2.256-1.248,3.48-1.248      c1.224,0,2.496,0.264,3.479,1.248c2.138,2.135,1.872,6.288,1.081,8.111c-0.396,0.913-0.959,1.699-1.427,2.023      c-0.704,0.489-1.163,1.283-1.163,2.18c0,1.488,1.268,2.695,2.828,2.695c1.563,0,2.83-1.207,2.83-2.695      c0-1.129-0.727-2.096-1.76-2.498l-1.096,0.846c0.938,0,1.699,0.689,1.699,1.541S484.189,449.241,483.252,449.241z"
   id="path1961"
   style="font-size:12;" /><g
   id="Ebene_16"
   knockout="Off"
   style="font-size:12;"
   transform="translate(31.29772,-55.88882)"><path
   knockout="Off"
   d="M431.612,271.812c0.873,0.504,1.75,0.955,2.495,1.247l-0.947,1.642l-1.364-0.565l-0.036,0.062       c0.478,0.996,0.549,2.506-0.279,3.94c-1.176,2.037-3.21,2.248-4.665,1.408c-2.432-1.404-2.514-4.333-0.249-8.208l-0.208-0.12       c-0.831-0.48-2.48-1.127-3.647,0.942c-0.553,0.956-0.847,2.089-0.776,3.072l-1.466-0.292c-0.04-1.131,0.314-2.562,1.047-3.83       c1.788-3.097,4.319-2.633,6.335-1.469L431.612,271.812z M427.858,272.027c-1.194,1.971-2.148,4.441-0.195,5.569       c1.206,0.696,2.202,0.218,2.73-0.696c0.768-1.33,0.429-2.663-0.256-3.445c-0.151-0.17-0.347-0.311-0.534-0.419L427.858,272.027       z"
   id="path1964" /></g></svg>
